# xmcd CD database file
#
# Track frame offsets:
#	150
#	21802
#	48670
#	66565
#	85107
#	103730
#	139052
#	156962
#	177917
#	198665
#	223525
#	243992
#
# Disc length: 3498 seconds
#
# Revision: 7
# Processed by: cddbd v1.5.2PL0 Copyright (c) Steve Scherf et al.
# Submitted via: CDex 1.51
#
DISCID=af0da80c
DTITLE=Judas Priest - Ram It Down
DYEAR=1988
DGENRE=Heavy Metal
TTITLE0=Ram It Down
TTITLE1=Heavy Metal
TTITLE2=Love Zone
TTITLE3=Come And Get It
TTITLE4=Hard As Iron
TTITLE5=Blood Red Skies
TTITLE6=I'm A Rocker
TTITLE7=Johnny B. Goode
TTITLE8=Love You To Death
TTITLE9=Monsters Of Rock
TTITLE10=Night Comes Down (live) (bonus)
TTITLE11=Bloodstone (live) (bonus)
EXTD=YEAR: 1988
EXTT0=
EXTT1=
EXTT2=
EXTT3=
EXTT4=
EXTT5=
EXTT6=
EXTT7=
EXTT8=
EXTT9=
EXTT10=
EXTT11=
PLAYORDER=
